<mxfile host="Electron" modified="2023-09-02T06:32:39.550Z" agent="Mozilla/5.0 (Macintosh; Intel Mac OS X 10_15_7) AppleWebKit/537.36 (KHTML, like Gecko) draw.io/21.6.8 Chrome/114.0.5735.289 Electron/25.5.0 Safari/537.36" etag="6COP-itdm3QPF-qLBogv" version="21.6.8" type="device">
  <diagram name="第 1 页" id="aHH_PKlhrsn5Y4e_2kX2">
    <mxGraphModel dx="2424" dy="1632" grid="1" gridSize="18" guides="1" tooltips="1" connect="1" arrows="1" fold="1" page="0" pageScale="1" pageWidth="827" pageHeight="1169" math="0" shadow="0">
      <root>
        <mxCell id="0" />
        <mxCell id="1" parent="0" />
        <mxCell id="X9PUomzNVoyu03uZVEVv-6" style="edgeStyle=none;curved=1;rounded=0;orthogonalLoop=1;jettySize=auto;html=1;exitX=1;exitY=0.5;exitDx=0;exitDy=0;entryX=0;entryY=0.5;entryDx=0;entryDy=0;fontFamily=Helvetica;fontSize=16;fontColor=#FF1212;startSize=8;endSize=8;" edge="1" parent="1" source="X9PUomzNVoyu03uZVEVv-2" target="X9PUomzNVoyu03uZVEVv-4">
          <mxGeometry relative="1" as="geometry" />
        </mxCell>
        <mxCell id="X9PUomzNVoyu03uZVEVv-2" value="&lt;font&gt;Term Index&lt;/font&gt;" style="rounded=1;whiteSpace=wrap;html=1;fontSize=16;strokeColor=#000000;fontColor=#FF1212;" vertex="1" parent="1">
          <mxGeometry x="-1080" y="-558" width="120" height="60" as="geometry" />
        </mxCell>
        <mxCell id="X9PUomzNVoyu03uZVEVv-7" style="edgeStyle=none;curved=1;rounded=0;orthogonalLoop=1;jettySize=auto;html=1;exitX=1;exitY=0.5;exitDx=0;exitDy=0;entryX=0;entryY=0.5;entryDx=0;entryDy=0;fontFamily=Helvetica;fontSize=16;fontColor=#FF1212;startSize=8;endSize=8;" edge="1" parent="1" source="X9PUomzNVoyu03uZVEVv-4" target="X9PUomzNVoyu03uZVEVv-5">
          <mxGeometry relative="1" as="geometry" />
        </mxCell>
        <mxCell id="X9PUomzNVoyu03uZVEVv-4" value="Term Dictionary" style="rounded=1;whiteSpace=wrap;html=1;strokeColor=#000000;fontFamily=Helvetica;fontSize=16;fontColor=#FF1212;fillColor=default;" vertex="1" parent="1">
          <mxGeometry x="-792" y="-558" width="144" height="60" as="geometry" />
        </mxCell>
        <mxCell id="X9PUomzNVoyu03uZVEVv-5" value="Posting List" style="rounded=1;whiteSpace=wrap;html=1;strokeColor=#000000;fontFamily=Helvetica;fontSize=16;fontColor=#FF1212;fillColor=default;" vertex="1" parent="1">
          <mxGeometry x="-468" y="-558" width="120" height="60" as="geometry" />
        </mxCell>
        <mxCell id="X9PUomzNVoyu03uZVEVv-8" value="Lucene 索引结构" style="text;html=1;align=center;verticalAlign=middle;resizable=0;points=[];autosize=1;strokeColor=none;fillColor=none;fontSize=16;fontFamily=Helvetica;fontColor=#FF1212;" vertex="1" parent="1">
          <mxGeometry x="-801" y="-684" width="162" height="36" as="geometry" />
        </mxCell>
        <mxCell id="X9PUomzNVoyu03uZVEVv-9" value="" style="shape=curlyBracket;whiteSpace=wrap;html=1;rounded=1;labelPosition=left;verticalLabelPosition=middle;align=right;verticalAlign=middle;strokeColor=#000000;fontFamily=Helvetica;fontSize=16;fontColor=#FF1212;fillColor=default;" vertex="1" parent="1">
          <mxGeometry x="-1062" y="-450" width="18" height="252" as="geometry" />
        </mxCell>
        <mxCell id="X9PUomzNVoyu03uZVEVv-10" value="Term Index: term index 是通过tire tree 组织 大量的Term Dictionary 的" style="text;html=1;align=center;verticalAlign=middle;resizable=0;points=[];autosize=1;strokeColor=none;fillColor=none;fontSize=16;fontFamily=Helvetica;fontColor=#FF1212;" vertex="1" parent="1">
          <mxGeometry x="-1023" y="-240" width="522" height="36" as="geometry" />
        </mxCell>
        <mxCell id="X9PUomzNVoyu03uZVEVv-11" value="Term:&amp;nbsp; 主要是用来存储一个索引key 所对应的记录行，记录行中还会记录着 具体文档的id" style="text;html=1;align=left;verticalAlign=middle;resizable=0;points=[];autosize=1;strokeColor=none;fillColor=none;fontSize=16;fontFamily=Helvetica;fontColor=#FF1212;" vertex="1" parent="1">
          <mxGeometry x="-1008" y="-450" width="666" height="36" as="geometry" />
        </mxCell>
        <mxCell id="X9PUomzNVoyu03uZVEVv-12" value="Posting List: 就是Term中记录的相关文档记录id 的集合" style="text;html=1;align=left;verticalAlign=middle;resizable=0;points=[];autosize=1;strokeColor=none;fillColor=none;fontSize=16;fontFamily=Helvetica;fontColor=#FF1212;" vertex="1" parent="1">
          <mxGeometry x="-1008" y="-389" width="414" height="36" as="geometry" />
        </mxCell>
        <mxCell id="X9PUomzNVoyu03uZVEVv-13" value="Term Dictionary: 很多Term的文件目录，可以理解为 Term 索引文件&amp;nbsp;" style="text;html=1;strokeColor=none;fillColor=none;align=left;verticalAlign=middle;whiteSpace=wrap;rounded=0;fontSize=16;fontFamily=Helvetica;fontColor=#FF1212;" vertex="1" parent="1">
          <mxGeometry x="-1008" y="-316" width="612" height="30" as="geometry" />
        </mxCell>
      </root>
    </mxGraphModel>
  </diagram>
</mxfile>
